<svg xmlns="http://www.w3.org/2000/svg" xmlns:xlink="http://www.w3.org/1999/xlink" width="500" zoomAndPan="magnify" viewBox="0 0 375 374.999991" height="500" preserveAspectRatio="xMidYMid meet" version="1.0"><defs><g/><clipPath id="8eb73e0ed4"><path d="M 187.5 0 C 83.945312 0 0 83.945312 0 187.5 C 0 291.054688 83.945312 375 187.5 375 C 291.054688 375 375 291.054688 375 187.5 C 375 83.945312 291.054688 0 187.5 0 Z M 187.5 0 " clip-rule="nonzero"/></clipPath><clipPath id="e2cf158f47"><path d="M 0 0 L 375 0 L 375 375 L 0 375 Z M 0 0 " clip-rule="nonzero"/></clipPath><clipPath id="fb3ccd3dd2"><path d="M 187.5 0 C 83.945312 0 0 83.945312 0 187.5 C 0 291.054688 83.945312 375 187.5 375 C 291.054688 375 375 291.054688 375 187.5 C 375 83.945312 291.054688 0 187.5 0 Z M 187.5 0 " clip-rule="nonzero"/></clipPath><clipPath id="509a2e824b"><rect x="0" width="375" y="0" height="375"/></clipPath><clipPath id="8337ec8463"><rect x="0" width="261" y="0" height="374"/></clipPath></defs><g clip-path="url(#8eb73e0ed4)"><g transform="matrix(1, 0, 0, 1, 0, 0)"><g clip-path="url(#509a2e824b)"><g clip-path="url(#e2cf158f47)"><g clip-path="url(#fb3ccd3dd2)"><rect x="-82.5" width="540" fill="#ffffff" height="539.999987" y="-82.499998" fill-opacity="1"/></g></g></g></g></g><g transform="matrix(1, 0, 0, 1, 59, 0)"><g clip-path="url(#8337ec8463)"><g fill="#000000" fill-opacity="1"><g transform="translate(0.837676, 289.589711)"><g><path d="M 239.6875 -116.359375 C 239.6875 -114.472656 239.648438 -112.476562 239.578125 -110.375 C 239.503906 -108.28125 239.328125 -105.203125 239.046875 -101.140625 L 55.03125 -101.140625 C 56.625 -86.347656 60.972656 -73.515625 68.078125 -62.640625 C 75.179688 -51.765625 84.097656 -43.390625 94.828125 -37.515625 C 105.554688 -31.640625 117.015625 -28.703125 129.203125 -28.703125 C 144.140625 -28.703125 156.898438 -31.925781 167.484375 -38.375 C 178.066406 -44.832031 185.820312 -54.300781 190.75 -66.78125 L 232.734375 -66.78125 C 229.546875 -56.625 224.796875 -47.125 218.484375 -38.28125 C 212.179688 -29.4375 204.566406 -21.710938 195.640625 -15.109375 C 186.722656 -8.515625 176.71875 -3.332031 165.625 0.4375 C 154.53125 4.207031 142.675781 6.09375 130.0625 6.09375 C 113.96875 6.09375 99.066406 3.082031 85.359375 -2.9375 C 71.660156 -8.957031 59.703125 -17.332031 49.484375 -28.0625 C 39.265625 -38.789062 31.328125 -51.222656 25.671875 -65.359375 C 20.015625 -79.492188 17.1875 -94.679688 17.1875 -110.921875 C 17.1875 -127.160156 20.015625 -142.347656 25.671875 -156.484375 C 31.328125 -170.628906 39.265625 -183.066406 49.484375 -193.796875 C 59.703125 -204.523438 71.660156 -212.9375 85.359375 -219.03125 C 99.066406 -225.125 113.96875 -228.171875 130.0625 -228.171875 C 146.019531 -228.171875 160.703125 -225.195312 174.109375 -219.25 C 187.523438 -213.300781 199.125 -205.101562 208.90625 -194.65625 C 218.695312 -184.21875 226.273438 -172.289062 231.640625 -158.875 C 237.003906 -145.46875 239.6875 -131.296875 239.6875 -116.359375 Z M 56.765625 -134.203125 L 201.40625 -134.203125 C 200.832031 -142.035156 198.550781 -149.503906 194.5625 -156.609375 C 190.570312 -163.710938 185.3125 -169.984375 178.78125 -175.421875 C 172.257812 -180.859375 164.753906 -185.132812 156.265625 -188.25 C 147.785156 -191.363281 138.835938 -192.921875 129.421875 -192.921875 C 118.398438 -192.921875 107.882812 -190.671875 97.875 -186.171875 C 87.875 -181.679688 79.25 -175.085938 72 -166.390625 C 64.75 -157.691406 59.671875 -146.960938 56.765625 -134.203125 Z M 56.765625 -134.203125 "/></g></g></g></g></g></svg>