<svg xmlns="http://www.w3.org/2000/svg" xmlns:xlink="http://www.w3.org/1999/xlink" width="500" zoomAndPan="magnify" viewBox="0 0 375 374.999991" height="500" preserveAspectRatio="xMidYMid meet" version="1.0"><defs><g/></defs><g fill="#ffffff" fill-opacity="1"><g transform="translate(1.12562, 359.305904)"><g><path d="M 362.78125 -176.125 C 362.78125 -173.269531 362.722656 -170.25 362.609375 -167.0625 C 362.503906 -163.882812 362.234375 -159.222656 361.796875 -153.078125 L 83.296875 -153.078125 C 85.703125 -130.691406 92.28125 -111.269531 103.03125 -94.8125 C 113.789062 -78.351562 127.289062 -65.675781 143.53125 -56.78125 C 159.769531 -47.894531 177.109375 -43.453125 195.546875 -43.453125 C 218.148438 -43.453125 237.460938 -48.332031 253.484375 -58.09375 C 269.503906 -67.863281 281.25 -82.1875 288.71875 -101.0625 L 352.25 -101.0625 C 347.425781 -85.695312 340.238281 -71.320312 330.6875 -57.9375 C 321.144531 -44.550781 309.625 -32.863281 296.125 -22.875 C 282.625 -12.894531 267.476562 -5.050781 250.6875 0.65625 C 233.894531 6.363281 215.953125 9.21875 196.859375 9.21875 C 172.503906 9.21875 149.957031 4.664062 129.21875 -4.4375 C 108.476562 -13.550781 90.367188 -26.226562 74.890625 -42.46875 C 59.421875 -58.707031 47.40625 -77.523438 38.84375 -98.921875 C 30.28125 -120.328125 26 -143.316406 26 -167.890625 C 26 -192.472656 30.28125 -215.460938 38.84375 -236.859375 C 47.40625 -258.265625 59.421875 -277.085938 74.890625 -293.328125 C 90.367188 -309.566406 108.476562 -322.296875 129.21875 -331.515625 C 149.957031 -340.734375 172.503906 -345.34375 196.859375 -345.34375 C 221.003906 -345.34375 243.226562 -340.84375 263.53125 -331.84375 C 283.832031 -322.84375 301.390625 -310.441406 316.203125 -294.640625 C 331.015625 -278.835938 342.476562 -260.785156 350.59375 -240.484375 C 358.71875 -220.179688 362.78125 -198.726562 362.78125 -176.125 Z M 85.921875 -203.125 L 304.84375 -203.125 C 303.96875 -214.976562 300.507812 -226.28125 294.46875 -237.03125 C 288.4375 -247.78125 280.484375 -257.269531 270.609375 -265.5 C 260.734375 -273.738281 249.375 -280.21875 236.53125 -284.9375 C 223.695312 -289.65625 210.144531 -292.015625 195.875 -292.015625 C 179.195312 -292.015625 163.285156 -288.609375 148.140625 -281.796875 C 132.992188 -274.992188 119.929688 -265.007812 108.953125 -251.84375 C 97.984375 -238.675781 90.304688 -222.4375 85.921875 -203.125 Z M 85.921875 -203.125 "/></g></g></g></svg>